<mxfile host="app.diagrams.net" modified="2023-03-24T06:47:04.394Z" agent="Mozilla/5.0 (Windows NT 10.0; Win64; x64) AppleWebKit/537.36 (KHTML, like Gecko) Chrome/111.0.0.0 Safari/537.36" etag="I-NgYtVaNgxxU3IFWJvJ" version="21.1.0" type="github">
  <diagram name="Page-1" id="13e1069c-82ec-6db2-03f1-153e76fe0fe0">
    <mxGraphModel dx="2012" dy="1164" grid="1" gridSize="10" guides="1" tooltips="1" connect="1" arrows="1" fold="1" page="1" pageScale="1" pageWidth="1169" pageHeight="827" background="none" math="0" shadow="0">
      <root>
        <mxCell id="0" />
        <mxCell id="1" parent="0" />
        <mxCell id="7baba1c4bc27f4b0-2" value="Local DB&lt;br&gt;(Client)" style="shape=umlLifeline;perimeter=lifelinePerimeter;whiteSpace=wrap;html=1;container=1;collapsible=0;recursiveResize=0;outlineConnect=0;rounded=1;shadow=0;comic=0;labelBackgroundColor=none;strokeWidth=1;fontFamily=Verdana;fontSize=12;align=center;" parent="1" vertex="1">
          <mxGeometry x="334" y="149" width="100" height="580" as="geometry" />
        </mxCell>
        <mxCell id="7baba1c4bc27f4b0-10" value="" style="html=1;points=[];perimeter=orthogonalPerimeter;rounded=0;shadow=0;comic=0;labelBackgroundColor=none;strokeWidth=1;fontFamily=Verdana;fontSize=12;align=center;" parent="7baba1c4bc27f4b0-2" vertex="1">
          <mxGeometry x="45" y="100" width="10" height="330" as="geometry" />
        </mxCell>
        <mxCell id="7baba1c4bc27f4b0-3" value="Server" style="shape=umlLifeline;perimeter=lifelinePerimeter;whiteSpace=wrap;html=1;container=1;collapsible=0;recursiveResize=0;outlineConnect=0;rounded=1;shadow=0;comic=0;labelBackgroundColor=none;strokeWidth=1;fontFamily=Verdana;fontSize=12;align=center;" parent="1" vertex="1">
          <mxGeometry x="534" y="149" width="100" height="580" as="geometry" />
        </mxCell>
        <mxCell id="7baba1c4bc27f4b0-13" value="" style="html=1;points=[];perimeter=orthogonalPerimeter;rounded=0;shadow=0;comic=0;labelBackgroundColor=none;strokeWidth=1;fontFamily=Verdana;fontSize=12;align=center;" parent="7baba1c4bc27f4b0-3" vertex="1">
          <mxGeometry x="45" y="220" width="10" height="140" as="geometry" />
        </mxCell>
        <mxCell id="7baba1c4bc27f4b0-4" value="Local DB&lt;br style=&quot;border-color: var(--border-color);&quot;&gt;(Server)" style="shape=umlLifeline;perimeter=lifelinePerimeter;whiteSpace=wrap;html=1;container=1;collapsible=0;recursiveResize=0;outlineConnect=0;rounded=1;shadow=0;comic=0;labelBackgroundColor=none;strokeWidth=1;fontFamily=Verdana;fontSize=12;align=center;" parent="1" vertex="1">
          <mxGeometry x="734" y="149" width="100" height="600" as="geometry" />
        </mxCell>
        <mxCell id="7baba1c4bc27f4b0-16" value="" style="html=1;points=[];perimeter=orthogonalPerimeter;rounded=0;shadow=0;comic=0;labelBackgroundColor=none;strokeWidth=1;fontFamily=Verdana;fontSize=12;align=center;" parent="7baba1c4bc27f4b0-4" vertex="1">
          <mxGeometry x="45" y="310" width="10" height="30" as="geometry" />
        </mxCell>
        <mxCell id="7baba1c4bc27f4b0-5" value="Sap" style="shape=umlLifeline;perimeter=lifelinePerimeter;whiteSpace=wrap;html=1;container=1;collapsible=0;recursiveResize=0;outlineConnect=0;rounded=1;shadow=0;comic=0;labelBackgroundColor=none;strokeWidth=1;fontFamily=Verdana;fontSize=12;align=center;" parent="1" vertex="1">
          <mxGeometry x="934" y="149" width="100" height="580" as="geometry" />
        </mxCell>
        <mxCell id="7baba1c4bc27f4b0-19" value="" style="html=1;points=[];perimeter=orthogonalPerimeter;rounded=0;shadow=0;comic=0;labelBackgroundColor=none;strokeWidth=1;fontFamily=Verdana;fontSize=12;align=center;" parent="7baba1c4bc27f4b0-5" vertex="1">
          <mxGeometry x="45" y="240" width="10" height="30" as="geometry" />
        </mxCell>
        <mxCell id="7baba1c4bc27f4b0-8" value="Client" style="shape=umlLifeline;perimeter=lifelinePerimeter;whiteSpace=wrap;html=1;container=1;collapsible=0;recursiveResize=0;outlineConnect=0;rounded=1;shadow=0;comic=0;labelBackgroundColor=none;strokeWidth=1;fontFamily=Verdana;fontSize=12;align=center;" parent="1" vertex="1">
          <mxGeometry x="134" y="149" width="100" height="580" as="geometry" />
        </mxCell>
        <mxCell id="7baba1c4bc27f4b0-9" value="" style="html=1;points=[];perimeter=orthogonalPerimeter;rounded=0;shadow=0;comic=0;labelBackgroundColor=none;strokeWidth=1;fontFamily=Verdana;fontSize=12;align=center;" parent="7baba1c4bc27f4b0-8" vertex="1">
          <mxGeometry x="45" y="100" width="10" height="390" as="geometry" />
        </mxCell>
        <mxCell id="7baba1c4bc27f4b0-41" value="주요 테이블:&lt;br style=&quot;font-size: 9px;&quot;&gt;SYNC_INFO_T&lt;br&gt;- 요청 데이터 정보를 저장" style="shape=note;whiteSpace=wrap;html=1;size=14;verticalAlign=top;align=left;spacingTop=-6;rounded=0;shadow=0;comic=0;labelBackgroundColor=none;strokeWidth=1;fontFamily=Verdana;fontSize=9;" parent="1" vertex="1">
          <mxGeometry x="321.5" y="79" width="125" height="55" as="geometry" />
        </mxCell>
        <mxCell id="7baba1c4bc27f4b0-42" value="Client의 Local DB와 테이블 구조 동일&lt;br&gt;&lt;br&gt;Sap 데이터를 저장하지만,&lt;br style=&quot;font-size: 9px;&quot;&gt;테이블의 데이터를 사용하는 부분은 미발견&lt;br style=&quot;font-size: 9px;&quot;&gt;" style="shape=note;whiteSpace=wrap;html=1;size=14;verticalAlign=top;align=left;spacingTop=-6;rounded=0;shadow=0;comic=0;labelBackgroundColor=none;strokeWidth=1;fontFamily=Verdana;fontSize=9;" parent="1" vertex="1">
          <mxGeometry x="684" y="79" width="200" height="60" as="geometry" />
        </mxCell>
        <mxCell id="J-QSnM_BqVcyyCU5msKF-3" value="# 정상" style="text;html=1;strokeColor=none;fillColor=none;align=left;verticalAlign=middle;whiteSpace=wrap;rounded=0;fontStyle=1;fontSize=24;fontFamily=Helvetica;" vertex="1" parent="1">
          <mxGeometry x="134" y="79" width="165" height="40" as="geometry" />
        </mxCell>
        <mxCell id="J-QSnM_BqVcyyCU5msKF-4" value="insert 전송할 데이터" style="html=1;verticalAlign=bottom;endArrow=block;edgeStyle=elbowEdgeStyle;elbow=vertical;curved=0;rounded=0;align=left;" edge="1" parent="1" source="7baba1c4bc27f4b0-9" target="7baba1c4bc27f4b0-10">
          <mxGeometry x="-0.9474" width="80" relative="1" as="geometry">
            <mxPoint x="534" y="389" as="sourcePoint" />
            <mxPoint x="354" y="377" as="targetPoint" />
            <Array as="points">
              <mxPoint x="334" y="249" />
              <mxPoint x="334" y="229" />
            </Array>
            <mxPoint as="offset" />
          </mxGeometry>
        </mxCell>
        <mxCell id="J-QSnM_BqVcyyCU5msKF-7" value="select 미전송 데이터 목록" style="html=1;verticalAlign=bottom;endArrow=block;edgeStyle=elbowEdgeStyle;elbow=vertical;curved=0;rounded=0;align=left;" edge="1" parent="1" source="7baba1c4bc27f4b0-9" target="7baba1c4bc27f4b0-10">
          <mxGeometry x="-0.9474" width="80" relative="1" as="geometry">
            <mxPoint x="199" y="289" as="sourcePoint" />
            <mxPoint x="389" y="289" as="targetPoint" />
            <Array as="points">
              <mxPoint x="344" y="289" />
              <mxPoint x="344" y="269" />
            </Array>
            <mxPoint as="offset" />
          </mxGeometry>
        </mxCell>
        <mxCell id="J-QSnM_BqVcyyCU5msKF-8" value="return 미전송 데이터 목록" style="html=1;verticalAlign=bottom;endArrow=open;dashed=1;endSize=8;edgeStyle=elbowEdgeStyle;elbow=vertical;curved=0;rounded=0;align=right;" edge="1" parent="1" source="7baba1c4bc27f4b0-10" target="7baba1c4bc27f4b0-9">
          <mxGeometry x="-0.9474" relative="1" as="geometry">
            <mxPoint x="304" y="318.58" as="sourcePoint" />
            <mxPoint x="224" y="318.58" as="targetPoint" />
            <Array as="points">
              <mxPoint x="234" y="319" />
            </Array>
            <mxPoint as="offset" />
          </mxGeometry>
        </mxCell>
        <mxCell id="J-QSnM_BqVcyyCU5msKF-9" value="dispatch LMTC001 전문 - RFC Name + Body 데이터" style="html=1;verticalAlign=bottom;endArrow=block;edgeStyle=elbowEdgeStyle;elbow=vertical;curved=0;rounded=0;align=left;" edge="1" parent="1" source="7baba1c4bc27f4b0-9" target="7baba1c4bc27f4b0-13">
          <mxGeometry x="-0.9831" width="80" relative="1" as="geometry">
            <mxPoint x="244" y="369" as="sourcePoint" />
            <mxPoint x="744" y="369" as="targetPoint" />
            <Array as="points">
              <mxPoint x="474" y="369" />
              <mxPoint x="349" y="348.58" />
            </Array>
            <mxPoint as="offset" />
          </mxGeometry>
        </mxCell>
        <mxCell id="J-QSnM_BqVcyyCU5msKF-11" value="dispatch RFC - Body 데이터" style="html=1;verticalAlign=bottom;endArrow=block;edgeStyle=elbowEdgeStyle;elbow=vertical;curved=0;rounded=0;align=left;" edge="1" parent="1" source="7baba1c4bc27f4b0-13" target="7baba1c4bc27f4b0-19">
          <mxGeometry x="-0.9474" width="80" relative="1" as="geometry">
            <mxPoint x="794" y="389" as="sourcePoint" />
            <mxPoint x="964" y="389" as="targetPoint" />
            <Array as="points">
              <mxPoint x="924" y="389" />
              <mxPoint x="949" y="369" />
            </Array>
            <mxPoint as="offset" />
          </mxGeometry>
        </mxCell>
        <mxCell id="J-QSnM_BqVcyyCU5msKF-12" value="return 데이터 + 저장할 테이블 이름 목록" style="html=1;verticalAlign=bottom;endArrow=open;dashed=1;endSize=8;edgeStyle=elbowEdgeStyle;elbow=vertical;curved=0;rounded=0;align=right;" edge="1" parent="1" source="7baba1c4bc27f4b0-19" target="7baba1c4bc27f4b0-13">
          <mxGeometry x="-0.9473" relative="1" as="geometry">
            <mxPoint x="984" y="419" as="sourcePoint" />
            <mxPoint x="794" y="419" as="targetPoint" />
            <Array as="points">
              <mxPoint x="839" y="419" />
            </Array>
            <mxPoint as="offset" />
          </mxGeometry>
        </mxCell>
        <mxCell id="J-QSnM_BqVcyyCU5msKF-15" value="insert SAP response" style="html=1;verticalAlign=bottom;endArrow=block;edgeStyle=elbowEdgeStyle;elbow=vertical;curved=0;rounded=0;align=left;" edge="1" parent="1" source="7baba1c4bc27f4b0-13" target="7baba1c4bc27f4b0-16">
          <mxGeometry x="-0.9459" width="80" relative="1" as="geometry">
            <mxPoint x="599" y="459" as="sourcePoint" />
            <mxPoint x="774" y="459" as="targetPoint" />
            <Array as="points">
              <mxPoint x="744" y="459" />
              <mxPoint x="744" y="439" />
            </Array>
            <mxPoint as="offset" />
          </mxGeometry>
        </mxCell>
        <mxCell id="J-QSnM_BqVcyyCU5msKF-16" value="return true" style="html=1;verticalAlign=bottom;endArrow=open;dashed=1;endSize=8;edgeStyle=elbowEdgeStyle;elbow=vertical;curved=0;rounded=0;align=right;" edge="1" parent="1" source="7baba1c4bc27f4b0-16" target="7baba1c4bc27f4b0-13">
          <mxGeometry x="-0.9474" relative="1" as="geometry">
            <mxPoint x="764" y="489" as="sourcePoint" />
            <mxPoint x="614" y="489" as="targetPoint" />
            <Array as="points">
              <mxPoint x="644" y="489" />
            </Array>
            <mxPoint as="offset" />
          </mxGeometry>
        </mxCell>
        <mxCell id="J-QSnM_BqVcyyCU5msKF-17" value="return SAP response" style="html=1;verticalAlign=bottom;endArrow=open;dashed=1;endSize=8;edgeStyle=elbowEdgeStyle;elbow=vertical;curved=0;rounded=0;align=right;" edge="1" parent="1" source="7baba1c4bc27f4b0-13" target="7baba1c4bc27f4b0-9">
          <mxGeometry x="-0.9474" relative="1" as="geometry">
            <mxPoint x="544" y="509" as="sourcePoint" />
            <mxPoint x="354" y="509" as="targetPoint" />
            <Array as="points">
              <mxPoint x="254" y="509" />
            </Array>
            <mxPoint as="offset" />
          </mxGeometry>
        </mxCell>
        <mxCell id="J-QSnM_BqVcyyCU5msKF-44" value="update 데이터 전송 완료" style="html=1;verticalAlign=bottom;endArrow=block;edgeStyle=elbowEdgeStyle;elbow=vertical;curved=0;rounded=0;align=left;" edge="1" parent="1" source="7baba1c4bc27f4b0-9" target="7baba1c4bc27f4b0-10">
          <mxGeometry x="-0.9474" width="80" relative="1" as="geometry">
            <mxPoint x="199" y="540" as="sourcePoint" />
            <mxPoint x="370" y="540" as="targetPoint" />
            <Array as="points">
              <mxPoint x="354" y="540" />
              <mxPoint x="354" y="520" />
            </Array>
            <mxPoint as="offset" />
          </mxGeometry>
        </mxCell>
        <mxCell id="J-QSnM_BqVcyyCU5msKF-48" value="return true" style="html=1;verticalAlign=bottom;endArrow=open;dashed=1;endSize=8;edgeStyle=elbowEdgeStyle;elbow=vertical;curved=0;rounded=0;align=right;" edge="1" parent="1" source="7baba1c4bc27f4b0-10" target="7baba1c4bc27f4b0-9">
          <mxGeometry x="-0.9474" relative="1" as="geometry">
            <mxPoint x="370" y="570" as="sourcePoint" />
            <mxPoint x="180" y="570" as="targetPoint" />
            <Array as="points">
              <mxPoint x="235" y="570" />
            </Array>
            <mxPoint as="offset" />
          </mxGeometry>
        </mxCell>
        <mxCell id="J-QSnM_BqVcyyCU5msKF-49" value="Loop" style="shape=umlFrame;whiteSpace=wrap;html=1;pointerEvents=0;" vertex="1" parent="1">
          <mxGeometry x="100" y="340" width="970" height="260" as="geometry" />
        </mxCell>
        <mxCell id="J-QSnM_BqVcyyCU5msKF-76" value="Local DB&lt;br&gt;(Client)" style="shape=umlLifeline;perimeter=lifelinePerimeter;whiteSpace=wrap;html=1;container=1;collapsible=0;recursiveResize=0;outlineConnect=0;rounded=1;shadow=0;comic=0;labelBackgroundColor=none;strokeWidth=1;fontFamily=Verdana;fontSize=12;align=center;" vertex="1" parent="1">
          <mxGeometry x="334" y="976" width="100" height="580" as="geometry" />
        </mxCell>
        <mxCell id="J-QSnM_BqVcyyCU5msKF-77" value="" style="html=1;points=[];perimeter=orthogonalPerimeter;rounded=0;shadow=0;comic=0;labelBackgroundColor=none;strokeWidth=1;fontFamily=Verdana;fontSize=12;align=center;" vertex="1" parent="J-QSnM_BqVcyyCU5msKF-76">
          <mxGeometry x="45" y="100" width="10" height="330" as="geometry" />
        </mxCell>
        <mxCell id="J-QSnM_BqVcyyCU5msKF-78" value="Server" style="shape=umlLifeline;perimeter=lifelinePerimeter;whiteSpace=wrap;html=1;container=1;collapsible=0;recursiveResize=0;outlineConnect=0;rounded=1;shadow=0;comic=0;labelBackgroundColor=none;strokeWidth=1;fontFamily=Verdana;fontSize=12;align=center;" vertex="1" parent="1">
          <mxGeometry x="534" y="976" width="100" height="580" as="geometry" />
        </mxCell>
        <mxCell id="J-QSnM_BqVcyyCU5msKF-79" value="" style="html=1;points=[];perimeter=orthogonalPerimeter;rounded=0;shadow=0;comic=0;labelBackgroundColor=none;strokeWidth=1;fontFamily=Verdana;fontSize=12;align=center;" vertex="1" parent="J-QSnM_BqVcyyCU5msKF-78">
          <mxGeometry x="45" y="220" width="10" height="140" as="geometry" />
        </mxCell>
        <mxCell id="J-QSnM_BqVcyyCU5msKF-80" value="Local DB&lt;br style=&quot;border-color: var(--border-color);&quot;&gt;(Server)" style="shape=umlLifeline;perimeter=lifelinePerimeter;whiteSpace=wrap;html=1;container=1;collapsible=0;recursiveResize=0;outlineConnect=0;rounded=1;shadow=0;comic=0;labelBackgroundColor=none;strokeWidth=1;fontFamily=Verdana;fontSize=12;align=center;" vertex="1" parent="1">
          <mxGeometry x="734" y="976" width="100" height="600" as="geometry" />
        </mxCell>
        <mxCell id="J-QSnM_BqVcyyCU5msKF-82" value="Sap" style="shape=umlLifeline;perimeter=lifelinePerimeter;whiteSpace=wrap;html=1;container=1;collapsible=0;recursiveResize=0;outlineConnect=0;rounded=1;shadow=0;comic=0;labelBackgroundColor=none;strokeWidth=1;fontFamily=Verdana;fontSize=12;align=center;" vertex="1" parent="1">
          <mxGeometry x="934" y="976" width="100" height="580" as="geometry" />
        </mxCell>
        <mxCell id="J-QSnM_BqVcyyCU5msKF-84" value="Client" style="shape=umlLifeline;perimeter=lifelinePerimeter;whiteSpace=wrap;html=1;container=1;collapsible=0;recursiveResize=0;outlineConnect=0;rounded=1;shadow=0;comic=0;labelBackgroundColor=none;strokeWidth=1;fontFamily=Verdana;fontSize=12;align=center;" vertex="1" parent="1">
          <mxGeometry x="134" y="976" width="100" height="580" as="geometry" />
        </mxCell>
        <mxCell id="J-QSnM_BqVcyyCU5msKF-85" value="" style="html=1;points=[];perimeter=orthogonalPerimeter;rounded=0;shadow=0;comic=0;labelBackgroundColor=none;strokeWidth=1;fontFamily=Verdana;fontSize=12;align=center;" vertex="1" parent="J-QSnM_BqVcyyCU5msKF-84">
          <mxGeometry x="45" y="100" width="10" height="390" as="geometry" />
        </mxCell>
        <mxCell id="J-QSnM_BqVcyyCU5msKF-86" value="주요 테이블:&lt;br style=&quot;font-size: 9px;&quot;&gt;SYNC_INFO_T&lt;br&gt;- 요청 데이터 정보를 저장" style="shape=note;whiteSpace=wrap;html=1;size=14;verticalAlign=top;align=left;spacingTop=-6;rounded=0;shadow=0;comic=0;labelBackgroundColor=none;strokeWidth=1;fontFamily=Verdana;fontSize=9;" vertex="1" parent="1">
          <mxGeometry x="321.5" y="906" width="125" height="55" as="geometry" />
        </mxCell>
        <mxCell id="J-QSnM_BqVcyyCU5msKF-87" value="Client의 Local DB와 테이블 구조 동일&lt;br&gt;&lt;br&gt;Sap 데이터를 저장하지만,&lt;br style=&quot;font-size: 9px;&quot;&gt;테이블의 데이터를 사용하는 부분은 미발견&lt;br style=&quot;font-size: 9px;&quot;&gt;" style="shape=note;whiteSpace=wrap;html=1;size=14;verticalAlign=top;align=left;spacingTop=-6;rounded=0;shadow=0;comic=0;labelBackgroundColor=none;strokeWidth=1;fontFamily=Verdana;fontSize=9;" vertex="1" parent="1">
          <mxGeometry x="684" y="906" width="200" height="60" as="geometry" />
        </mxCell>
        <mxCell id="J-QSnM_BqVcyyCU5msKF-88" value="# 실패" style="text;html=1;strokeColor=none;fillColor=none;align=left;verticalAlign=middle;whiteSpace=wrap;rounded=0;fontStyle=1;fontSize=24;fontFamily=Helvetica;" vertex="1" parent="1">
          <mxGeometry x="134" y="906" width="165" height="40" as="geometry" />
        </mxCell>
        <mxCell id="J-QSnM_BqVcyyCU5msKF-89" value="insert 전송할 데이터" style="html=1;verticalAlign=bottom;endArrow=block;edgeStyle=elbowEdgeStyle;elbow=vertical;curved=0;rounded=0;align=left;" edge="1" parent="1" source="J-QSnM_BqVcyyCU5msKF-85" target="J-QSnM_BqVcyyCU5msKF-77">
          <mxGeometry x="-0.9474" width="80" relative="1" as="geometry">
            <mxPoint x="534" y="1216" as="sourcePoint" />
            <mxPoint x="354" y="1204" as="targetPoint" />
            <Array as="points">
              <mxPoint x="334" y="1076" />
              <mxPoint x="334" y="1056" />
            </Array>
            <mxPoint as="offset" />
          </mxGeometry>
        </mxCell>
        <mxCell id="J-QSnM_BqVcyyCU5msKF-90" value="select 미전송 데이터 목록" style="html=1;verticalAlign=bottom;endArrow=block;edgeStyle=elbowEdgeStyle;elbow=vertical;curved=0;rounded=0;align=left;" edge="1" parent="1" source="J-QSnM_BqVcyyCU5msKF-85" target="J-QSnM_BqVcyyCU5msKF-77">
          <mxGeometry x="-0.9474" width="80" relative="1" as="geometry">
            <mxPoint x="199" y="1116" as="sourcePoint" />
            <mxPoint x="389" y="1116" as="targetPoint" />
            <Array as="points">
              <mxPoint x="344" y="1116" />
              <mxPoint x="344" y="1096" />
            </Array>
            <mxPoint as="offset" />
          </mxGeometry>
        </mxCell>
        <mxCell id="J-QSnM_BqVcyyCU5msKF-91" value="return 미전송 데이터 목록" style="html=1;verticalAlign=bottom;endArrow=open;dashed=1;endSize=8;edgeStyle=elbowEdgeStyle;elbow=vertical;curved=0;rounded=0;align=right;" edge="1" parent="1" source="J-QSnM_BqVcyyCU5msKF-77" target="J-QSnM_BqVcyyCU5msKF-85">
          <mxGeometry x="-0.9474" relative="1" as="geometry">
            <mxPoint x="304" y="1145.58" as="sourcePoint" />
            <mxPoint x="224" y="1145.58" as="targetPoint" />
            <Array as="points">
              <mxPoint x="234" y="1146" />
            </Array>
            <mxPoint as="offset" />
          </mxGeometry>
        </mxCell>
        <mxCell id="J-QSnM_BqVcyyCU5msKF-92" value="dispatch LMTC001 전문 - RFC Name + Body 데이터" style="html=1;verticalAlign=bottom;endArrow=block;edgeStyle=elbowEdgeStyle;elbow=vertical;curved=0;rounded=0;align=left;" edge="1" parent="1" source="J-QSnM_BqVcyyCU5msKF-85" target="J-QSnM_BqVcyyCU5msKF-79">
          <mxGeometry x="-0.9831" width="80" relative="1" as="geometry">
            <mxPoint x="244" y="1196" as="sourcePoint" />
            <mxPoint x="744" y="1196" as="targetPoint" />
            <Array as="points">
              <mxPoint x="474" y="1196" />
              <mxPoint x="349" y="1175.58" />
            </Array>
            <mxPoint as="offset" />
          </mxGeometry>
        </mxCell>
        <mxCell id="J-QSnM_BqVcyyCU5msKF-97" value="return false" style="html=1;verticalAlign=bottom;endArrow=open;dashed=1;endSize=8;edgeStyle=elbowEdgeStyle;elbow=vertical;curved=0;rounded=0;align=right;" edge="1" parent="1" source="J-QSnM_BqVcyyCU5msKF-79" target="J-QSnM_BqVcyyCU5msKF-85">
          <mxGeometry x="-0.9474" relative="1" as="geometry">
            <mxPoint x="544" y="1336" as="sourcePoint" />
            <mxPoint x="354" y="1336" as="targetPoint" />
            <Array as="points">
              <mxPoint x="254" y="1336" />
            </Array>
            <mxPoint as="offset" />
          </mxGeometry>
        </mxCell>
        <mxCell id="J-QSnM_BqVcyyCU5msKF-100" value="Loop" style="shape=umlFrame;whiteSpace=wrap;html=1;pointerEvents=0;" vertex="1" parent="1">
          <mxGeometry x="100" y="1167" width="970" height="260" as="geometry" />
        </mxCell>
      </root>
    </mxGraphModel>
  </diagram>
</mxfile>
